# xmcd CD database file
#
# Track frame offsets:
#	182
#	18575
#	30927
#	42685
#	57347
#	70690
#	87155
#	100925
#	114845
#	127185
#	138000
#	153170
#	168370
#	184442
#	202942
#
# Disc length: 2933 seconds
#
# Revision: 0
# Processed by: cddbd v1.5.2PL0 Copyright (c) Steve Scherf et al.
# Submitted via: CDex 1.51
#
DISCID=c30b730f
DTITLE=El Gran Combo - Celebrando 30 anos
DYEAR=1992
DGENRE=Salsa
TTITLE0=Eso Merece Un Trago
TTITLE1=Acangana
TTITLE2=El Perico
TTITLE3=Meneame Los Mangos
TTITLE4=La Jarana
TTITLE5=Bomba Pa' Rosa Y Jost
TTITLE6=Chango Arisco
TTITLE7=Festival En Guarare
TTITLE8=El Caballo Pelotero
TTITLE9=Oye Mi Consejo
TTITLE10=Sabor de Guaguanco
TTITLE11=El Jala - Jala Llego
TTITLE12=Mozambique
TTITLE13=Oye Mi Canto
TTITLE14=Para Todo El Mundo Rumba
EXTD=YEAR: 1992
EXTT0=
EXTT1=
EXTT2=
EXTT3=
EXTT4=
EXTT5=
EXTT6=
EXTT7=
EXTT8=
EXTT9=
EXTT10=
EXTT11=
EXTT12=
EXTT13=
EXTT14=
PLAYORDER=
